<svg id="Layer_1" data-name="Layer 1" xmlns="http://www.w3.org/2000/svg" xmlns:xlink="http://www.w3.org/1999/xlink" viewBox="0 0 105.28 68.89"><defs><style>.cls-1{fill:#fff;}.cls-2{fill:#f0d0ed;}.cls-3{fill:url(#linear-gradient);}.cls-4{fill:url(#linear-gradient-2);}.cls-5,.cls-6{fill:#e55d00;stroke:#ed1c24;stroke-miterlimit:10;}.cls-5{stroke-width:0.66px;}.cls-6{stroke-width:0.95px;}.cls-7{fill:url(#linear-gradient-3);}.cls-8{clip-path:url(#clip-path);}.cls-9{fill:#e0dfd9;}.cls-10{clip-path:url(#clip-path-2);}.cls-11{fill:#a9a79a;}.cls-12{clip-path:url(#clip-path-3);}.cls-13{fill:#efeee8;}</style><linearGradient id="linear-gradient" x1="34.26" y1="45.23" x2="34.47" y2="39.75" gradientUnits="userSpaceOnUse"><stop offset="0.22" stop-color="#b0a393"/><stop offset="0.57" stop-color="#cfb9a1"/><stop offset="0.8" stop-color="#d8c3b6"/></linearGradient><linearGradient id="linear-gradient-2" x1="34.7" y1="39.78" x2="34.66" y2="36.13" gradientUnits="userSpaceOnUse"><stop offset="0" stop-color="#a3d165"/><stop offset="1" stop-color="#39b54a"/></linearGradient><linearGradient id="linear-gradient-3" x1="34.81" y1="37.47" x2="35.02" y2="27.17" xlink:href="#linear-gradient"/><clipPath id="clip-path"><path id="_Clipping_Path_" data-name="&lt;Clipping Path&gt;" class="cls-1" d="M21.88,5.72c.69-1.75-4.21-6.24-7.3-4.3s-5.4,10-1.35,15.69S21.41,6.91,21.88,5.72Z"/></clipPath><clipPath id="clip-path-2"><path id="_Clipping_Path_2" data-name="&lt;Clipping Path&gt;" class="cls-1" d="M39,5.72c-.69-1.75,4.21-6.24,7.3-4.3s5.4,10,1.35,15.69S39.49,6.91,39,5.72Z"/></clipPath><clipPath id="clip-path-3"><path id="_Clipping_Path_3" data-name="&lt;Clipping Path&gt;" class="cls-2" d="M33.23,24.35c.36-.89-.58-1.69-2.84-1.69-1.9,0-3.17.82-2.8,1.69a1.5,1.5,0,0,0,.94,1,1.32,1.32,0,0,1,1.2,1.08c.12.39,1.24.31,1.35,0a1.46,1.46,0,0,1,1.25-1.08C32.71,25.21,33,25,33.23,24.35Z"/></clipPath><symbol id="LogoFullFaceSandwichPaw" data-name="LogoFullFaceSandwichPaw" viewBox="0 0 69.57 44.33"><g id="sandwich"><path class="cls-3" d="M1.33,36C3,35.07,60,33,67,36c5.58,2.44-3.41,8.08-8,8.11-3.92,0-46.62.8-51.79-.65S-1.45,37.4,1.33,36Z"/><path class="cls-4" d="M69.1,36.52a7,7,0,0,0-3.9,0l-.05,0c.06-.58-.76-1.1-1.77-1l-.62.07a1.29,1.29,0,0,0-.9.54l-1.63.08a10.82,10.82,0,0,0-3-.16,26.05,26.05,0,0,1-6.24.58.91.91,0,0,0-.77.32,2.06,2.06,0,0,0-1.8-.12,1.73,1.73,0,0,0-.31,0c-1.69.06-3.14-.46-4.79-.55-2.08-.12-4.28,0-6.37.07a1.91,1.91,0,0,0-1.2.41c-1.39-.07-2.79-.13-4.19-.14a1.77,1.77,0,0,0-1.23.42L30,37l-.57.15h0l0,0a1,1,0,0,0-.63-.28c-1.11-.11-3.55-.56-4.71,0a5.88,5.88,0,0,0-1.22-.26,23.52,23.52,0,0,0-3.39-.08,1.4,1.4,0,0,0-1,.46,2.67,2.67,0,0,1-.71-.29,3,3,0,0,0-2.89-.14l-.06,0a2.11,2.11,0,0,0-.39-.15c-1.65-.45-3.1.08-4.77,0-1.38-.11-2.36-.61-3.72-.42a1.76,1.76,0,0,0-1.73-1.09A1.77,1.77,0,0,0,2.43,36a2,2,0,0,0-.32,0,1.9,1.9,0,0,0-.45.06.78.78,0,0,0-.83-.72.81.81,0,0,0-.22,1.6,1.59,1.59,0,0,0,1,2.17.63.63,0,0,0,.44.66,1.93,1.93,0,0,0,1.26.13l.1,0a1.53,1.53,0,0,0,1.12.43,1.91,1.91,0,0,0,1-.33,1.37,1.37,0,0,0,1,.94,2.49,2.49,0,0,0,2.84-.9.57.57,0,0,0,0-.08,3.26,3.26,0,0,0,1-.07c.42.25.89.47,1.29.65a1.45,1.45,0,0,0,1.41-.19,6.12,6.12,0,0,0,1.63-.17,2.6,2.6,0,0,0,1,.27.81.81,0,0,0,.7.29c.55,0,.81-.3.79-.6l.17-.08h0a.89.89,0,0,0,.65.47,2.61,2.61,0,0,0,1.35,0,1.47,1.47,0,0,0,1.87.76A3,3,0,0,0,23,40.08a1.15,1.15,0,0,0,1.43.18l.06,0,0,0a3.32,3.32,0,0,0,3.33-.75,2.92,2.92,0,0,0,1.73.51,1.09,1.09,0,0,0,.67-.2,9.55,9.55,0,0,0,3.08,1.09,1.77,1.77,0,0,0,1.12-.38,7.08,7.08,0,0,0,2.46-.3,4.36,4.36,0,0,0,.51-.18,1.45,1.45,0,0,0,1.87,0,.34.34,0,0,0,.1-.16c.25,0,.61,0,1,0,0,0,0,0,0,0,.13.56,1.52.69,1.86.17l0-.05a2.9,2.9,0,0,0,1.1.2,3,3,0,0,0,.94-.14,3.5,3.5,0,0,0,1,.36,1.38,1.38,0,0,0,.91-.19,1.36,1.36,0,0,0,1.41-.13.3.3,0,0,0,.13-.33A9.18,9.18,0,0,0,49,39.62l.09.06a4.18,4.18,0,0,0,1,.34h.14a1.64,1.64,0,0,0,1.13,0h.5V40c.06.56.9.8,1.48.59a1.35,1.35,0,0,0,1.76-.12l.66-.82,0,0,1,.21c.1.43.7.65,1.31.7a.94.94,0,0,0,.6-.16,1.25,1.25,0,0,0,.66-.21l.18,0a1.26,1.26,0,0,0,1.23-.62.88.88,0,0,0,.48.34,4,4,0,0,0,3.7-.36,1.19,1.19,0,0,0,.35-.51.9.9,0,0,0,.71.31.88.88,0,0,0,.79-.41,1.09,1.09,0,0,0,.57.18c.62,0,1.28-.65,1-1.26l0-.07a1.19,1.19,0,0,0-.24-.35,5,5,0,0,0,1-.39C69.35,37,69.46,36.64,69.1,36.52Z"/><ellipse class="cls-5" cx="15.16" cy="35.97" rx="6.07" ry="2.33"/><ellipse class="cls-5" cx="7.75" cy="34.95" rx="6.07" ry="2.33"/><ellipse class="cls-5" cx="56.79" cy="35.79" rx="6.07" ry="2.33"/><ellipse class="cls-5" cx="62.72" cy="34.83" rx="6.07" ry="2.33"/><ellipse class="cls-5" cx="47.91" cy="35.54" rx="6.07" ry="2.33"/><ellipse class="cls-6" cx="25.43" cy="34.42" rx="8.87" ry="3.28"/><ellipse class="cls-6" cx="38.02" cy="34.74" rx="8.87" ry="3.28"/><path class="cls-7" d="M1.21,34.42c1.69.88,58.29,2,65.65,0s-2.2-6.77-6.05-7.45c-6.83-1.21-47-2.57-53.77,0C2,28.82-1.57,33,1.21,34.42Z"/></g><g id="HeadWithPaw"><path id="_Clipping_Path_4" data-name="&lt;Clipping Path&gt;" class="cls-1" d="M47.54,6.4C44.91,1.35,36-.2,30.45,0,24.88-.2,16,1.35,13.36,6.4c-2.71,5.2-1.59,11-.65,12.52S15.23,21.65,16,23.6a8.14,8.14,0,0,0,5.33,4.85c2.41.5,5.78,3.41,9.14,3.41,3.65,0,6.73-2.9,9.14-3.41a8.14,8.14,0,0,0,5.33-4.85c.75-1.94,2.34-3.17,3.27-4.67S50.25,11.6,47.54,6.4Z"/><path id="_Clipping_Path_5" data-name="&lt;Clipping Path&gt;" class="cls-1" d="M21.88,5.72c.69-1.75-4.21-6.24-7.3-4.3s-5.4,10-1.35,15.69S21.41,6.91,21.88,5.72Z"/><g class="cls-8"><path class="cls-9" d="M10.37,12.44c0,3.09,1.31-.15,3.93-2.8,1.79-1.81,5.61.85,5.61-1.79,0-3.09-1.49-4.62-4.11-4.62S10.37,9.35,10.37,12.44Z"/><path id="_Path_" data-name="&lt;Path&gt;" class="cls-1" d="M20,10.18c-.82.8-3.5-8.23-5.89-4.35a16.38,16.38,0,0,0-2,6.45,6.86,6.86,0,0,1-1.4,3.13c-.37.53,1.78,1.62,1.78,1.62s-2-.44-2-.79-1.87-3.79-.84-7S10.65,1.42,14.06.8s6.24.44,6.65,1.23,2.4,5,2.4,5S21.94,8.3,20,10.18Z"/></g><path d="M24.11,13.86c1.25,1.07-1,5.47-3.16,3.18C19.15,15.16,21.17,11.33,24.11,13.86Z"/><path id="_Clipping_Path_6" data-name="&lt;Clipping Path&gt;" class="cls-1" d="M39,5.72c-.69-1.75,4.21-6.24,7.3-4.3s5.4,10,1.35,15.69S39.49,6.91,39,5.72Z"/><g class="cls-10"><path class="cls-9" d="M50.53,12.44c0,3.09-1.31-.15-3.93-2.8C44.82,7.84,41,10.5,41,7.86c0-3.09,1.49-4.62,4.11-4.62S50.53,9.35,50.53,12.44Z"/><path id="_Path_2" data-name="&lt;Path&gt;" class="cls-1" d="M40.9,10.18c.82.8,3.5-8.23,5.89-4.35a16.38,16.38,0,0,1,2,6.45,6.86,6.86,0,0,0,1.4,3.13c.37.53-1.78,1.62-1.78,1.62s2-.44,2-.79,1.87-3.79.84-7S50.25,1.42,46.84.8,40.59,1.24,40.19,2s-2.4,5-2.4,5S39,8.3,40.9,10.18Z"/></g><path class="cls-11" d="M42.4,22.58a1.78,1.78,0,0,0-.15.32l-.33.93a17.25,17.25,0,0,1-1.44,3.24,4.46,4.46,0,0,1-1.71,1.7,2.31,2.31,0,0,1-1.36.2l-1.33-.22c-.9-.16-1.83-.37-2.76-.56a12.55,12.55,0,0,0-2.84-.25,14.06,14.06,0,0,0-2.84.3c-.93.2-1.86.39-2.77.56L23.51,29a2.39,2.39,0,0,1-1.4-.2,4.49,4.49,0,0,1-1.73-1.73A15.47,15.47,0,0,1,19,23.84l-.32-.94a1.75,1.75,0,0,0-.14-.32,1.77,1.77,0,0,1,.17.31c.1.21.24.51.4.91a19.33,19.33,0,0,0,1.61,3.11,4.24,4.24,0,0,0,1.62,1.51,1.88,1.88,0,0,0,1.12.14l1.32-.25,2.76-.58a14.64,14.64,0,0,1,2.94-.28,13.05,13.05,0,0,1,2.94.29l2.75.62,1.32.26a2,2,0,0,0,1.16-.14,4.28,4.28,0,0,0,1.64-1.54,17.1,17.1,0,0,0,1.6-3.13l.38-.91A1.73,1.73,0,0,1,42.4,22.58Z"/><path id="_Clipping_Path_7" data-name="&lt;Clipping Path&gt;" class="cls-2" d="M33.23,24.35c.36-.89-.58-1.69-2.84-1.69-1.9,0-3.17.82-2.8,1.69a1.5,1.5,0,0,0,.94,1,1.32,1.32,0,0,1,1.2,1.08c.12.39,1.24.31,1.35,0a1.46,1.46,0,0,1,1.25-1.08C32.71,25.21,33,25,33.23,24.35Z"/><g class="cls-12"><path class="cls-2" d="M34.45,25.27c-.22-1.59-2.07-2.2-4-2.17s-3.67.9-3.65,1.65c0,1.36-1.3,2.66,2,3S34.81,27.91,34.45,25.27Z"/></g><path d="M36.78,13.88c-1.25,1.07,1,5.47,3.16,3.18C41.73,15.18,39.72,11.36,36.78,13.88Z"/><path class="cls-13" d="M34.86,6.68l.22-.29a8.62,8.62,0,0,1,.65-.76A14.12,14.12,0,0,1,38,3.74a17.66,17.66,0,0,1,2.55-1.43,12.5,12.5,0,0,1,1.23-.49,0,0,0,0,1,0,0,0,0,0,0,1,0,0,12.38,12.38,0,0,0-1.18.57A17.4,17.4,0,0,0,38.21,4a13.63,13.63,0,0,0-2.06,2,7.9,7.9,0,0,0-.55.74L35.41,7a.33.33,0,1,1-.56-.35Z"/><path class="cls-13" d="M25.56,7l-.19-.31A7.9,7.9,0,0,0,24.82,6a13.61,13.61,0,0,0-2.06-2,17.4,17.4,0,0,0-2.4-1.59,12.38,12.38,0,0,0-1.18-.57,0,0,0,0,1,0-.05,12.5,12.5,0,0,1,1.23.49A17.66,17.66,0,0,1,23,3.74a14.12,14.12,0,0,1,2.27,1.89,8.62,8.62,0,0,1,.65.76l.22.29a.33.33,0,0,1-.53.39Z"/><path id="Paw" class="cls-1" d="M49.58,23.15c-4.94.82-7.79,7.32-4,9s10.54-5.24,10.54-5.24S56.59,22,49.58,23.15Z"/><ellipse id="LeftEyeGlint" class="cls-1" cx="22.26" cy="14.53" rx="1" ry="0.95"/><ellipse id="RightEyeGlint" class="cls-1" cx="38.52" cy="14.53" rx="1" ry="0.95"/></g></symbol></defs><title>Artboard 1</title><use width="69.57" height="44.33" transform="translate(8.7 6.44) scale(1.26)" xlink:href="#LogoFullFaceSandwichPaw"/></svg>